<?xml version="1.0" encoding="UTF-8"?>
<!DOCTYPE svg PUBLIC "-//W3C//DTD SVG 1.1//EN" "http://www.w3.org/Graphics/SVG/1.1/DTD/svg11.dtd">
<!-- Creator: CorelDRAW X6 -->
<svg xmlns="http://www.w3.org/2000/svg" xml:space="preserve" width="16.5196in" height="11.7157in" version="1.1" style="shape-rendering:geometricPrecision; text-rendering:geometricPrecision; image-rendering:optimizeQuality; fill-rule:evenodd; clip-rule:evenodd"
viewBox="0 0 16520 11716"
 xmlns:xlink="http://www.w3.org/1999/xlink">
 <defs>
  <style type="text/css">
   <![CDATA[
    .fil1 {fill:#3BE3D7;fill-rule:nonzero}
    .fil0 {fill:#53532A;fill-rule:nonzero}
    .fil2 {fill:#EEFD19;fill-rule:nonzero}
   ]]>
  </style>
 </defs>
 <g id="__x0023_Layer_x0020_1">
  <metadata id="CorelCorpID_0Corel-Layer"/>
  <g id="_401223160">
   <g>
    <path class="fil0" d="M7115 8074l336 0c153,0 242,67 242,195 0,164 -89,253 -242,253l-181 0 0 241 -155 0 0 -689zm155 116l0 0 0 168 187 0c28,0 67,-15 67,-60 0,-65 -10,-109 -67,-109l-187 0z"/>
    <path class="fil0" d="M8385 8635l-271 0 -48 127 -134 0 222 -686 199 0 238 686 -142 0 -64 -127zm-52 -139l0 0 -76 -222 -72 222 147 0z"/>
    <polygon class="fil0" points="9213,8763 9034,8763 9034,8489 8777,8074 8976,8074 9115,8297 9289,8074 9461,8074 9213,8458 "/>
   </g>
   <path class="fil1" d="M6125 4956c0,77 66,178 144,178l645 0c109,0 178,-69 153,-178l5 -533 131 0 26 533c-17,109 51,178 161,178l630 0c60,0 146,-69 146,-178l0 -662c0,-109 -85,-161 -146,-161l-533 -15 0 -173 533 34c60,0 146,-51 146,-161l0 -645c0,-60 -85,-129 -146,-129l-630 0c-109,0 -178,69 -161,129l-26 533 -131 0 -5 -533c25,-60 -44,-129 -153,-129l-645 0c-77,0 -144,51 -144,129 0,270 38,471 38,889 0,446 -38,636 -38,893z"/>
   <path class="fil2" d="M8338 4956c0,109 69,178 178,178 231,0 506,-34 804,-34 276,0 588,34 898,34 60,0 129,-69 129,-178l0 -281c0,-109 -69,-178 -129,-178l-876 -15 0 -139 876 -15c60,0 129,-60 129,-129l0 -263c0,-109 -69,-178 -129,-178l-876 -15 0 -98 876 -7c60,0 129,-69 129,-178l0 -287c0,-60 -69,-129 -129,-129 -280,0 -625,2 -838,2 -227,0 -664,-2 -863,-2 -109,0 -178,69 -178,129 0,302 4,491 4,857 0,420 -4,611 -4,925z"/>
   <path class="fil1" d="M8338 6494c0,129 69,197 178,197l855 -34 0 139 -855 15c-109,0 -178,69 -178,178l0 217c0,70 69,139 178,139 174,32 510,29 808,29 332,0 653,3 893,-29 60,0 129,-69 129,-139 0,-180 30,-283 30,-547 0,-210 -30,-330 -30,-484 0,-109 -69,-178 -129,-178l-904 -15 0 -139 904 -15c60,0 129,-59 129,-129l0 -266c0,-109 -69,-178 -129,-178 -332,0 -630,19 -880,19 -313,0 -647,-19 -821,-19 -109,0 -195,69 -178,178 17,150 -13,328 -13,536 0,212 13,371 13,525z"/>
   <path class="fil2" d="M6125 7206c0,87 66,139 144,139l645 0c109,0 178,-69 153,-139l5 -499 131 0 26 499c-17,70 51,139 161,139l630 0c60,0 146,-69 146,-139l0 -679c0,-109 -85,-183 -146,-183l-533 34 0 -173 533 -15c60,0 146,-51 146,-161l0 -596c0,-109 -85,-178 -146,-178l-630 0c-109,0 -178,69 -161,178l-26 533 -131 0 -5 -533c25,-109 -44,-178 -153,-178l-645 0c-77,0 -144,101 -144,178 0,270 38,471 38,840 0,482 -38,636 -38,932z"/>
  </g>
 </g>
</svg>
