<?xml version="1.0" encoding="UTF-8"?>
<svg width="800px" height="800px" viewBox="0 0 800 800" version="1.1" xmlns="http://www.w3.org/2000/svg" xmlns:xlink="http://www.w3.org/1999/xlink">
    <!-- Generator: Sketch 59.1 (86144) - https://sketch.com -->
    <title>img_keks_cta</title>
    <desc>Created with Sketch.</desc>
    <g id="img_keks_cta" stroke="none" stroke-width="1" fill="none" fill-rule="evenodd">
        <circle id="Oval-6" fill="#312E5B" cx="400.5" cy="400.5" r="346.5"></circle>
        <path d="M204,378.439559 C204,387.527102 209.745128,393.58503 219.080794,393.58503 L275.574332,393.58503 C284.672232,393.58503 291.134666,387.294355 290.895564,378.439559 L290.176922,333.000548 L304.779512,333.000548 L304.06087,378.439559 C303.821768,387.294355 310.285538,393.58503 319.382102,393.58503 L376.35518,393.58503 C385.450408,393.58503 391.914178,387.294355 391.914178,378.439559 L391.914178,317.855078 C391.914178,309.000283 385.450408,302.941055 376.35518,302.941055 L329.675513,303.407849 L329.675513,289.658862 L376.35518,290.125657 C385.450408,290.125657 391.914178,284.066428 391.914178,275.211633 L391.914178,220.219585 C391.914178,211.36479 385.450408,205.072815 376.35518,205.072815 L319.382102,205.072815 C310.285538,205.072815 303.821768,211.36479 304.06087,220.219585 L304.779512,265.658597 L290.176922,265.658597 L290.895564,220.219585 C291.134666,211.36479 284.672232,205.072815 275.574332,205.072815 L219.080794,205.072815 C209.745128,205.072815 204,211.132043 204,220.219585 C204,243.987103 205.915488,261.463946 205.915488,295.950837 C205.915488,337.89474 204,353.505705 204,378.439559" id="Fill-1" fill="#21A3E9"></path>
        <path d="M406.356476,378.529278 C406.365827,387.384073 412.83494,393.669547 421.931504,393.660455 C444.433812,393.639641 470.284885,393.149441 498.533658,393.122136 C525.103373,393.097431 552.873941,393.53692 579.204554,393.512215 C588.301118,393.503113 594.758209,387.205937 594.748869,378.351142 L594.723479,351.088515 C594.714129,342.23372 588.24368,335.948246 579.147116,335.956047 L501.11035,336.496957 L501.096992,323.213464 L579.135094,323.606144 C588.231658,323.598342 594.688749,317.299865 594.679399,308.44507 L594.658027,286.774877 C594.650012,277.920082 588.179563,271.634608 579.084335,271.64371 L501.046233,272.183319 L501.032875,258.901127 L579.070977,259.293806 C588.166205,259.284705 594.623297,252.987528 594.615282,244.132733 L594.591238,220.131167 C594.583224,211.276372 588.112775,204.990898 579.017546,204.99999 C556.515238,205.020804 523.481753,205.751552 501.937189,205.772357 C480.870828,205.791861 444.484572,205.127426 421.744497,205.14823 C412.646597,205.157332 406.189506,211.454508 406.198846,220.309303 C406.221564,243.844074 407.676213,262.484653 407.710943,296.272003 C407.745673,331.458436 406.328425,350.799856 406.356476,378.529278" id="Fill-2" fill="#3ADF9E"></path>
        <path d="M406.277666,516.853139 C406.277666,525.707934 412.740101,531.999909 421.836665,531.999909 L504.662151,531.533114 L504.662151,544.815307 L421.836665,544.349813 C412.740101,544.349813 406.277666,550.640488 406.277666,559.495283 L406.277666,580.00174 C406.277666,588.856535 412.740101,595.14721 421.836665,595.14721 C441.465741,594.914463 471.628666,594.448969 499.874766,594.448969 C528.600407,594.448969 559.241536,594.914463 579.11105,595.14721 C588.206278,595.14721 594.670048,588.856535 594.670048,580.00174 C594.670048,566.020006 593.712304,553.902849 593.712304,532.232656 C593.712304,511.960247 594.670048,499.610343 594.670048,486.793645 C594.670048,477.93885 588.206278,471.648175 579.11105,471.648175 L496.284228,472.113669 L496.284228,458.830956 L579.11105,459.297751 C588.206278,459.297751 594.670048,453.005775 594.670048,444.15098 L594.670048,421.781246 C594.670048,412.926451 588.206278,406.634475 579.11105,406.634475 C550.385409,406.634475 522.136637,407.566764 498.67792,407.566764 C470.910024,407.566764 441.465741,406.634475 421.836665,406.634475 C412.740101,406.634475 406.037228,412.926451 406.277666,421.781246 C406.516768,433.19886 407.474512,448.345631 407.474512,467.919019 C407.474512,488.89097 406.277666,503.105452 406.277666,516.853139" id="Fill-3" fill="#21A3E9"></path>
        <path d="M204,580.00122 C204,589.088762 209.745128,595.14799 219.080794,595.14799 L275.574332,595.14799 C284.672232,595.14799 291.134666,588.856015 290.895564,580.00122 L290.176922,534.562208 L304.779512,534.562208 L304.06087,580.00122 C303.821768,588.856015 310.285538,595.14799 319.382102,595.14799 L376.35518,595.14799 C385.450408,595.14799 391.914178,588.856015 391.914178,580.00122 L391.914178,519.416738 C391.914178,510.561943 385.450408,504.502715 376.35518,504.502715 L329.675513,504.969509 L329.675513,491.220522 L376.35518,491.687317 C385.450408,491.687317 391.914178,485.628089 391.914178,476.774594 L391.914178,421.781246 C391.914178,412.926451 385.450408,406.635775 376.35518,406.635775 L319.382102,406.635775 C310.285538,406.635775 303.821768,412.926451 304.06087,421.781246 L304.779512,467.220257 L290.176922,467.220257 L290.895564,421.781246 C291.134666,412.926451 284.672232,406.635775 275.574332,406.635775 L219.080794,406.635775 C209.745128,406.635775 204,412.693703 204,421.781246 C204,445.548764 205.915488,463.025607 205.915488,497.512498 C205.915488,539.456401 204,555.068666 204,580.00122" id="Fill-4" fill="#3ADF9E"></path>
    </g>
</svg>